<?xml version="1.0" encoding="UTF-8" standalone="no"?>
<svg
   xmlns:dc="http://purl.org/dc/elements/1.1/"
   xmlns:cc="http://creativecommons.org/ns#"
   xmlns:rdf="http://www.w3.org/1999/02/22-rdf-syntax-ns#"
   xmlns:svg="http://www.w3.org/2000/svg"
   xmlns="http://www.w3.org/2000/svg"
   xmlns:sodipodi="http://sodipodi.sourceforge.net/DTD/sodipodi-0.dtd"
   xmlns:inkscape="http://www.inkscape.org/namespaces/inkscape"
   height="512pt"
   viewBox="-11 0 511 512"
   width="512pt"
   version="1.1"
   id="svg10"
   sodipodi:docname="teddy-bear.svg"
   inkscape:version="0.92.4 (5da689c313, 2019-01-14)">
  <metadata
     id="metadata16">
    <rdf:RDF>
      <cc:Work
         rdf:about="">
        <dc:format>image/svg+xml</dc:format>
        <dc:type
           rdf:resource="http://purl.org/dc/dcmitype/StillImage" />
      </cc:Work>
    </rdf:RDF>
  </metadata>
  <defs
     id="defs14" />
  <sodipodi:namedview
     pagecolor="#ffffff"
     bordercolor="#666666"
     borderopacity="1"
     objecttolerance="10"
     gridtolerance="10"
     guidetolerance="10"
     inkscape:pageopacity="0"
     inkscape:pageshadow="2"
     inkscape:window-width="1366"
     inkscape:window-height="706"
     id="namedview12"
     showgrid="false"
     inkscape:zoom="0.34570313"
     inkscape:cx="341.33333"
     inkscape:cy="341.33333"
     inkscape:window-x="-8"
     inkscape:window-y="-8"
     inkscape:window-maximized="1"
     inkscape:current-layer="svg10" />
  <path
     d="m462.050781 383.089844c-22.742187-14.609375-53.179687-11.4375-75.867187 7.328125l-7.484375-4.804688c2.171875-5.074219 3.988281-10.277343 5.4375-15.5625 26.398437-6.636719 43.890625-20.566406 49.488281-39.546875v.003906c5.117188-17.347656.402344-33.699218-4.453125-44.355468-10.828125-23.8125-30.605469-44.964844-60.273437-64.4375 18.859374-20.292969 28.667968-46.355469 28.667968-76.867188 0-19.246094-3.871094-37.8125-11.523437-55.324218 7.769531-1.996094 15.289062-4.675782 21.816406-7.808594 11.375-5.464844 18.554687-11.707032 21.328125-18.554688 3.28125-8.097656 1.691406-23.394531-13.589844-39.851562-6.511718-7.015625-14.113281-12.429688-21.980468-15.660156-9.441407-3.875-19.03125-4.445313-27.738282-1.648438-10.921875 3.511719-21.445312 11.890625-29.25 23.046875-26.328125-18.785156-58.550781-29.046875-91.648437-29.046875-33.101563 0-65.324219 10.261719-91.652344 29.046875-7.804687-11.15625-18.328125-19.535156-29.253906-23.046875-8.707031-2.796875-18.296875-2.226562-27.734375 1.648438-7.867188 3.230468-15.46875 8.644531-21.980469 15.660156-15.28125 16.457031-16.871094 31.753906-13.589844 39.851562 2.777344 6.847656 9.953125 13.089844 21.332031 18.554688 6.527344 3.132812 14.046876 5.8125 21.820313 7.808594-3.09375 7.101562-5.585937 14.433593-7.4375 21.894531-1 4.019531 1.453125 8.089843 5.472656 9.085937 4.015625 1 8.085938-1.449218 9.085938-5.472656 2.339843-9.429688 5.832031-18.632812 10.371093-27.351562 1.105469-2.117188 1.132813-4.632813.082032-6.777344-1.054688-2.140625-3.0625-3.652344-5.414063-4.074219-21.335937-3.804687-38.945312-13.226563-41.410156-19.300781-1.695313-4.1875 1.90625-14.5625 10.679687-24.011719 8.367188-9.011719 21.726563-17.21875 34.136719-13.234375 9.617188 3.089844 19.027344 11.785156 25.175781 23.261719 1.054688 1.964843 2.925782 3.359375 5.109376 3.804687 2.1875.449219 4.457031-.101562 6.195312-1.496094 24.808594-19.894531 56.421875-30.851562 89.011719-30.851562 32.585937 0 64.199219 10.957031 89.011719 30.855469 1.738281 1.394531 4.007812 1.945312 6.195312 1.496093 2.183594-.445312 4.054688-1.839843 5.109375-3.808593 6.148437-11.472657 15.558594-20.171875 25.171875-23.261719 12.414062-3.984375 25.773438 4.222656 34.136719 13.234375 8.777343 9.453125 12.378906 19.824219 10.679687 24.011719-2.460937 6.074218-20.070312 15.496094-41.40625 19.304687-2.351562.417969-4.359375 1.929688-5.414062 4.070313-1.054688 2.144531-1.023438 4.65625.078125 6.773437 9.304687 17.878907 14.023437 37.113281 14.023437 57.171875 0 29.402344-10.464844 54.046875-30.507812 72.371094-.082032.070312-.167969.140625-.25.21875-4.015625 3.660156-8.46875 7.097656-13.242188 10.210938-.074218.046874-.144531.097656-.21875.148437-.289062.191406-.582031.378906-.875.566406-5.089844-2.875-10.582031-5.121093-16.410156-6.652343-27.820312-7.332032-59.53125 4.179687-76.082031 26.550781-16.542969-22.367188-48.261719-33.882813-76.082031-26.550781-5.828126 1.53125-11.320313 3.777343-16.410157 6.652343-.292969-.183593-.582031-.371093-.871093-.558593-.074219-.054688-.148438-.105469-.226563-.15625-4.769531-3.117188-9.226563-6.550782-13.242187-10.210938-.082032-.074219-.164063-.148438-.246094-.214844-20.042969-18.324218-30.507813-42.96875-30.507813-72.375 0-4.140625-3.359375-7.5-7.5-7.5-4.144531 0-7.5 3.359375-7.5 7.5 0 30.515625 9.804688 56.578125 28.667969 76.871094-29.695312 19.496094-49.453125 40.632812-60.277344 64.429688-4.855468 10.664062-9.570312 27.015624-4.449218 44.359374 5.59375 18.976563 23.089843 32.90625 49.484374 39.542969 1.449219 5.285157 3.269532 10.488281 5.441407 15.5625l-7.484375 4.808594c-22.6875-18.769531-53.128906-21.9375-75.871094-7.332031-29.5 18.949218-36.246094 61.230468-15.039062 94.25 14.078124 21.898437 37.265624 34.660156 60.324218 34.660156 5.773438 0 11.503906-.804688 17.042969-2.457031.019531-.003907.039063-.011719.058594-.015625.078125-.023438.152343-.046875.226562-.070313.078125-.023437.152344-.046875.230469-.070312.027344-.007813.054688-.015625.082031-.023438 4.863281-1.507812 9.566407-3.667969 14.003907-6.519531l75.515624-48.515625c40.535157 18.4375 88.714844 18.4375 129.253907 0l75.515625 48.515625c4.574218 2.9375 9.429687 5.144531 14.445312 6.652344h.003906c.148438.046875.296876.089844.445313.136718.125.035157.253906.070313.378906.109376.015625.003906.035157.007812.050781.011718 5.3125 1.511719 10.796876 2.246094 16.320313 2.246094 23.246094 0 46.351563-12.921875 60.324219-34.664062 21.210937-33.019532 14.464844-75.300782-15.039063-94.246094zm-46.53125-90.726563c3.796875 8.339844 7.527344 20.988281 3.71875 33.898438 0 0 0 0-.003906 0-5.777344 19.597656-29.300781 27.316406-42.8125 30.175781-26.210937 5.550781-70.355469 3.273438-74.542969-23.058594-1.742187-10.925781 6.632813-21.839844 16.226563-26.460937 15.234375-7.332031 42.652343-9.410157 60.386719.015625 3.660156 1.945312 8.199218.554687 10.144531-3.105469 1.941406-3.65625.554687-8.199219-3.105469-10.140625-1.765625-.941406-3.585938-1.789062-5.449219-2.550781-6.152343-19.253907-15.378906-38.195313-26.957031-55.351563 1.535156-1.140625 3.03125-2.308594 4.488281-3.5 28.964844 18.457032 47.933594 38.144532 57.90625 60.078125zm-242.800781-56.148437c23.886719-6.296875 52.457031 5.566406 63.675781 26.433594 1.699219 3.179687 4.988281 5.15625 8.585938 5.15625 3.59375 0 6.882812-1.976563 8.574219-5.140626 11.226562-20.882812 39.796874-32.746093 63.6875-26.449218 12.785156 3.363281 23.628906 11.003906 31.359374 22.097656 5.507813 7.902344 9.378907 17.535156 11.253907 27.800781-17.566407-1.988281-35.988281 1.382813-48.257813 7.285157-14.433594 6.953124-27.492187 23.726562-24.53125 42.335937 2.789063 17.542969 16.234375 29.691406 37.960938 35.066406-29.101563 29.390625-68.433594 56.757813-80.046875 64.613281-11.621094-7.859374-50.945313-35.222656-80.046875-64.613281 21.726562-5.375 35.171875-17.523437 37.960937-35.066406 2.960938-18.609375-10.101562-35.382813-24.535156-42.335937-12.324219-5.929688-30.761719-9.261719-48.257813-7.289063 1.878907-10.265625 5.75-19.894531 11.253907-27.792969 7.734375-11.097656 18.574219-18.738281 31.363281-22.101562zm-102 90.046875c-3.808594-12.90625-.078125-25.558594 3.71875-33.902344 9.972656-21.929687 28.941406-41.617187 57.902344-60.074219 1.457031 1.191406 2.953125 2.359375 4.484375 3.496094-11.570313 17.132812-20.796875 36.074219-26.957031 55.355469-1.859376.761719-3.679688 1.609375-5.445313 2.546875-3.65625 1.945312-5.046875 6.488281-3.101563 10.144531 1.941407 3.65625 6.480469 5.046875 10.140626 3.101563 17.738281-9.425782 45.15625-7.34375 60.386718-.011719 9.207032 4.433593 18.019532 15.214843 16.230469 26.464843-4.191406 26.308594-48.460937 28.578126-74.546875 23.050782-13.507812-2.855469-37.03125-10.570313-42.8125-30.171875zm20.824219 166.796875c-3.027344 1.394531-6.175781 2.414062-9.398438 3.066406-.023437.003906-.042969.011719-.066406.015625-.132813.023437-.269531.050781-.402344.078125-.0625.011719-.121093.023438-.183593.035156-.070313.011719-.140626.023438-.210938.035156-.140625.027344-.28125.050782-.421875.078126l-.03125.003906c-18.347656 3.140625-38.582031-5.261719-51.835937-22.226563-10.140626-20.0625-5.78125-42.808593 10.265624-53.117187 17.457032-11.21875 42.484376-3.496094 55.789063 17.214844 12.125 18.875 10.570313 42.246093-3.503906 54.816406zm215.316406-54.023438c-18.839844 9.242188-40.238281 14.125-61.878906 14.125-21.644531 0-43.042969-4.882812-61.882813-14.125-2.355468-1.152344-5.148437-.992187-7.355468.425782l-58.84375 37.804687c3.253906-15.136719.3125-32.277344-9.230469-47.132813-17.773438-27.664062-52.101563-37.414062-76.519531-21.726562-5.664063 3.640625-10.324219 8.324219-13.910157 13.722656 2.878907-10.835937 9.230469-20.285156 18.773438-26.417968 18.394531-11.8125 43.808593-7.90625 61.808593 9.492187 2.503907 2.417969 6.335938 2.796875 9.265626.917969l17.769531-11.410156c3.21875-2.066407 4.367187-6.21875 2.667969-9.640626-1.933594-3.90625-3.625-7.917968-5.054688-12 7.96875.925782 15.75 1.117188 24.371094.496094 31.203125 34.058594 77.679687 66.210938 91.480468 75.449219 2.023438 1.351563 4.339844 2.03125 6.660157 2.03125 2.320312 0 4.636719-.679687 6.664062-2.03125 13.796875-9.238281 60.273438-41.390625 91.476563-75.449219 8.613281.621094 16.394531.429688 24.371094-.496094-1.433594 4.082032-3.121094 8.09375-5.054688 12-1.699219 3.421876-.546875 7.574219 2.667969 9.640626l17.769531 11.410156c2.925781 1.878906 6.761719 1.5 9.265625-.917969 18-17.398437 43.414063-21.304687 61.804687-9.492187 9.546876 6.132812 15.898438 15.582031 18.777344 26.421874-3.585937-5.402343-8.246094-10.085937-13.910156-13.726562-3.488281-2.238281-8.125-1.230469-10.367188 2.257812-2.238281 3.484376-1.226562 8.125 2.257813 10.363282 16.046875 10.308594 20.402344 33.054687 10.265625 53.117187-13.320312 17.046875-33.917969 25.6875-52.734375 22.0625-.09375-.015625-.183594-.035156-.277344-.054687-.070312-.011719-.144531-.027344-.214843-.042969-.121094-.023437-.242188-.050781-.363282-.074219-.015625-.003906-.03125-.007812-.046875-.011718-3.054687-.65625-6.039062-1.640626-8.917969-2.964844-14.074218-12.570313-15.628906-35.945313-3.503906-54.816406 6.976563-10.855469 17.582032-18.628907 29.109375-21.328126 4.03125-.945312 6.535157-4.980468 5.59375-9.011718-.945312-4.035156-4.984375-6.539063-9.015625-5.59375-15.285156 3.582031-29.246094 13.722656-38.304687 27.824218-9.542969 14.855469-12.484375 31.996094-9.234375 47.132813l-58.84375-37.804687c-2.207032-1.421876-4.996094-1.578126-7.355469-.425782zm0 0"
     id="path2"
     style="stroke:#ffa500;stroke-opacity:1;fill-opacity:1;fill:#ffa500" />
  <path
     d="m308.121094 104.910156v-5.765625c0-4.140625-3.359375-7.5-7.5-7.5-4.144532 0-7.5 3.359375-7.5 7.5v5.765625c0 4.144532 3.355468 7.5 7.5 7.5 4.140625 0 7.5-3.355468 7.5-7.5zm0 0"
     id="path4"
     style="stroke:#ffa500;stroke-opacity:1;fill:#ffa500;fill-opacity:1" />
  <path
     d="m189.339844 91.644531c-4.144532 0-7.5 3.359375-7.5 7.5v5.765625c0 4.144532 3.355468 7.5 7.5 7.5 4.140625 0 7.5-3.355468 7.5-7.5v-5.765625c0-4.140625-3.359375-7.5-7.5-7.5zm0 0"
     id="path6"
     style="fill:#ffa500;fill-opacity:1;stroke:#ffa500;stroke-opacity:1" />
  <path
     d="m244.980469 115.402344c-32.996094 0-59.835938 24.523437-59.835938 54.667968 0 14.859376 6.414063 27.164063 18.550781 35.582032 10.585938 7.34375 24.859376 11.226562 41.285157 11.226562 16.421875 0 30.699219-3.882812 41.28125-11.226562 12.136719-8.417969 18.554687-20.722656 18.554687-35.582032 0-30.144531-26.84375-54.667968-59.835937-54.667968zm16.972656 30.320312c0 7.351563-15.238281 7.566406-16.972656 7.566406-1.738281 0-16.976563-.214843-16.976563-7.566406 0-8.457031 10.269532-15.320312 16.976563-15.320312 6.703125 0 16.972656 6.863281 16.972656 15.320312zm-16.972656 56.15625c-33.058594 0-44.835938-16.433594-44.835938-31.808594 0-10.949218 5.039063-20.875 13.171875-28.058593-.207031 1.246093-.3125 2.484375-.3125 3.707031 0 11.855469 9.382813 20.082031 24.472656 22.089844v16.585937c0 4.140625 3.359376 7.5 7.5 7.5 4.144532 0 7.5-3.359375 7.5-7.5v-16.585937c15.09375-2.007813 24.476563-10.234375 24.476563-22.089844 0-1.222656-.101563-2.457031-.296875-3.695312 8.125 7.183593 13.15625 17.105468 13.15625 28.042968 0 15.378906-11.777344 31.8125-44.832031 31.8125zm0 0"
     id="path8"
     style="fill:#ffa500;fill-opacity:1" />
</svg>
