<?xml version="1.0" encoding="UTF-8" standalone="no"?>
<svg
   xmlns:dc="http://purl.org/dc/elements/1.1/"
   xmlns:cc="http://creativecommons.org/ns#"
   xmlns:rdf="http://www.w3.org/1999/02/22-rdf-syntax-ns#"
   xmlns:svg="http://www.w3.org/2000/svg"
   xmlns="http://www.w3.org/2000/svg"
   xmlns:sodipodi="http://sodipodi.sourceforge.net/DTD/sodipodi-0.dtd"
   xmlns:inkscape="http://www.inkscape.org/namespaces/inkscape"
   height="512pt"
   viewBox="0 0 512 512"
   width="512pt"
   version="1.1"
   id="svg4"
   sodipodi:docname="chevron.svg"
   inkscape:version="0.92.4 (5da689c313, 2019-01-14)">
  <metadata
     id="metadata10">
    <rdf:RDF>
      <cc:Work
         rdf:about="">
        <dc:format>image/svg+xml</dc:format>
        <dc:type
           rdf:resource="http://purl.org/dc/dcmitype/StillImage" />
      </cc:Work>
    </rdf:RDF>
  </metadata>
  <defs
     id="defs8" />
  <sodipodi:namedview
     pagecolor="#ffffff"
     bordercolor="#666666"
     borderopacity="1"
     objecttolerance="10"
     gridtolerance="10"
     guidetolerance="10"
     inkscape:pageopacity="0"
     inkscape:pageshadow="2"
     inkscape:window-width="1366"
     inkscape:window-height="706"
     id="namedview6"
     showgrid="false"
     inkscape:zoom="0.34570313"
     inkscape:cx="341.33333"
     inkscape:cy="341.33333"
     inkscape:window-x="-8"
     inkscape:window-y="-8"
     inkscape:window-maximized="1"
     inkscape:current-layer="svg4" />
  <ellipse
     style="opacity:1;fill:#ffa500;fill-opacity:1;fill-rule:evenodd;stroke:none;stroke-width:8.97491741;stroke-miterlimit:4;stroke-dasharray:none;stroke-opacity:1"
     id="path835"
     cx="251.74571"
     cy="252.55933"
     rx="254.91525"
     ry="252.74576" />
  <g
     id="g878">
    <path
       inkscape:connector-curvature="0"
       style="fill:#ffffff;fill-opacity:1;stroke:#ffffff;stroke-opacity:1"
       id="path2"
       d="m 252.02542,511.14406 c -68.3789,0 -132.66796,-26.62891 -181.019531,-74.98047 C 22.654319,387.81203 -3.9745703,323.52297 -3.9745703,255.14407 -3.9745703,186.76516 22.654319,122.4761 71.005889,74.12453 119.35746,25.77297 183.64652,-0.85593914 252.02542,-0.85593914 c 68.37891,0 132.66797,26.62890914 181.01954,74.98046914 48.35161,48.35157 74.98051,112.64063 74.98051,181.01954 0,68.3789 -26.6289,132.66796 -74.98051,181.01952 -48.35157,48.35156 -112.64063,74.98047 -181.01954,74.98047 z m 0,-472 c -119.10156,0 -216.000011,96.89845 -216.000011,216.00001 0,119.10155 96.898451,215.99999 216.000011,215.99999 119.10157,0 216.00005,-96.89844 216.00005,-215.99999 0,-119.10156 -96.89848,-216.00001 -216.00005,-216.00001 z M 356.31058,255.14407 218.02542,116.8589 l -28.28515,28.28517 110,110 -110,109.99999 28.28515,28.28516 z m 0,0" />
  </g>
</svg>
